<svg xmlns="http://www.w3.org/2000/svg" viewBox="0 0 1000 1000" width="1000" height="1000" role="img" aria-label="Placeholder image">
  <defs>
    <linearGradient id="warm3" x1="0" y1="0" x2="1" y2="1">
      <stop offset="0%" stop-color="#fffdf6"/>
      <stop offset="50%" stop-color="#f0ead8"/>
      <stop offset="100%" stop-color="#ddd4bb"/>
    </linearGradient>
    <clipPath id="frame3"><rect width="1000" height="1000"/></clipPath>
  </defs>

  <g clip-path="url(#frame3)">
    <rect width="1000" height="1000" fill="url(#warm3)"/>
    <circle cx="820" cy="200" r="250" fill="#d5e798" opacity="0.5"/>
    <circle cx="150" cy="880" r="220" fill="#57772e" opacity="0.12"/>

    <!-- Two founders standing together -->
    <g fill="#57772e">
      <path d="M478 1000 C478 760 540 522 628 522 C716 522 778 760 778 1000 Z"/>
      <circle cx="628" cy="452" r="98"/>
    </g>
    <g fill="#0c310a">
      <path d="M222 1000 C222 736 288 498 380 498 C472 498 538 736 538 1000 Z"/>
      <circle cx="380" cy="428" r="104"/>
    </g>

    <!-- Placeholder badge -->
    <g transform="translate(44 44)">
      <rect width="392" height="118" rx="24" fill="#0c310a" opacity="0.92"/>
      <text x="26" y="44" font-family="ui-monospace, SFMono-Regular, Menlo, monospace" font-size="19" letter-spacing="2.2" fill="#d5e798">▨ PLACEHOLDER</text>
      <text x="26" y="74" font-family="ui-sans-serif, system-ui, sans-serif" font-size="18" fill="#fffdf6">Founders — Martin and his wife,</text>
      <text x="26" y="99" font-family="ui-sans-serif, system-ui, sans-serif" font-size="18" fill="#fffdf6">photographed together · 1000×1000</text>
    </g>
  </g>
</svg>
